# Blender v2.82 (sub 7) OBJ File: ''
# www.blender.org
g Cube_PlatformCube
v -0.400160 -0.486586 0.400160
v -0.400160 -0.400160 0.486586
v -0.486586 -0.400160 0.400160
v -0.400160 0.400160 0.486586
v -0.400160 0.486586 0.400160
v -0.486586 0.400160 0.400160
v -0.400160 -0.486586 -0.400160
v -0.486586 -0.400160 -0.400160
v -0.400160 -0.400160 -0.486586
v -0.400160 0.486586 -0.400160
v -0.400160 0.400160 -0.486586
v -0.486586 0.400160 -0.400160
v 0.400160 -0.486586 0.400160
v 0.486586 -0.400160 0.400160
v 0.400160 -0.400160 0.486586
v 0.400160 0.486586 0.400160
v 0.400160 0.400160 0.486586
v 0.486586 0.400160 0.400160
v 0.400160 -0.486586 -0.400160
v 0.400160 -0.400160 -0.486586
v 0.486586 -0.400160 -0.400160
v 0.400160 0.486586 -0.400160
v 0.486586 0.400160 -0.400160
v 0.400160 0.400160 -0.486586
v -0.465694 -0.500000 -0.465694
v -0.465694 -0.500000 0.465694
v -0.500000 -0.465694 0.465694
v -0.500000 -0.465694 -0.465694
v -0.465694 -0.465694 0.500000
v -0.465694 0.465694 0.500000
v -0.500000 0.465694 0.465694
v -0.465694 0.500000 0.465694
v -0.465694 0.500000 -0.465694
v -0.500000 0.465694 -0.465694
v -0.465694 0.465694 -0.500000
v -0.465694 -0.465694 -0.500000
v 0.465694 -0.500000 -0.465694
v 0.465694 -0.465694 -0.500000
v 0.465694 0.500000 -0.465694
v 0.465694 0.465694 -0.500000
v 0.500000 0.465694 -0.465694
v 0.500000 -0.465694 -0.465694
v 0.465694 -0.500000 0.465694
v 0.500000 -0.465694 0.465694
v 0.465694 0.500000 0.465694
v 0.500000 0.465694 0.465694
v 0.465694 0.465694 0.500000
v 0.465694 -0.465694 0.500000
vt 0.000000 0.000000
vt 1.000000 0.000000
vt 1.000000 1.000000
vt 0.000000 1.000000
vt 0.000000 0.000000
vt 1.000000 0.000000
vt 1.000000 1.000000
vt 0.000000 1.000000
vt 0.000000 0.000000
vt 1.000000 0.000000
vt 1.000000 1.000000
vt 0.000000 1.000000
vt 0.000000 0.000000
vt 1.000000 0.000000
vt 1.000000 1.000000
vt 0.000000 1.000000
vt 0.000000 0.000000
vt 1.000000 0.000000
vt 1.000000 1.000000
vt 0.000000 1.000000
vt 0.500000 0.500000
vt 0.500000 0.500000
vt 0.500000 0.500000
vt 0.500000 0.500000
vt 0.500000 0.500000
vt 0.500000 0.500000
vt 0.500000 0.500000
vt 0.500000 0.500000
vt 0.500000 0.500000
vt 0.500000 0.500000
vt 0.500000 0.500000
vt 0.500000 0.500000
vt 0.500000 0.500000
vt 0.500000 0.500000
vt 0.500000 0.500000
vt 0.500000 0.500000
vt 0.500000 0.500000
vt 0.500000 0.500000
vt 0.500000 0.500000
vt 0.500000 0.500000
vt 0.500000 0.500000
vt 0.500000 0.500000
vt 0.500000 0.500000
vt 0.500000 0.500000
vt 0.000000 0.000000
vt 1.000000 0.000000
vt 1.000000 1.000000
vt 0.000000 1.000000
vt 0.500000 0.500000
vt 0.500000 0.500000
vt 0.500000 0.500000
vt 0.500000 0.500000
vt 0.500000 0.500000
vt 0.500000 0.500000
vt 0.500000 0.500000
vt 0.500000 0.500000
vt 0.500000 0.500000
vt 0.500000 0.500000
vt 0.500000 0.500000
vt 0.500000 0.500000
vt 0.500000 0.500000
vt 0.500000 0.500000
vt 0.500000 0.500000
vt 0.500000 0.500000
vt 0.500000 0.500000
vt 0.500000 0.500000
vt 0.500000 0.500000
vt 0.500000 0.500000
vt 0.500000 0.500000
vt 0.500000 0.500000
vt 0.500000 0.500000
vt 0.500000 0.500000
vn 0.0000 0.0000 1.0000
vn 1.0000 0.0000 0.0000
vn 0.0000 1.0000 0.0000
vn -1.0000 0.0000 0.0000
vn 0.0000 0.0000 -1.0000
vn -0.5774 -0.5774 0.5774
vn -0.5774 0.5774 0.5774
vn -0.5774 -0.5774 -0.5774
vn -0.5774 0.5774 -0.5774
vn 0.5774 -0.5774 0.5774
vn 0.5774 0.5774 0.5774
vn 0.5774 -0.5774 -0.5774
vn 0.5774 0.5774 -0.5774
vn -0.7071 -0.7071 0.0000
vn -0.7071 0.0000 0.7071
vn -0.7071 0.7071 0.0000
vn -0.7071 0.0000 -0.7071
vn 0.0000 -0.7071 -0.7071
vn 0.0000 0.7071 -0.7071
vn 0.7071 0.0000 -0.7071
vn 0.7071 -0.7071 0.0000
vn 0.7071 0.7071 0.0000
vn 0.7071 0.0000 0.7071
vn 0.0000 -0.7071 0.7071
vn 0.0000 0.7071 0.7071
vn 0.0000 -1.0000 0.0000
vn 0.1013 -0.9897 0.1013
vn 0.1013 -0.9897 -0.1013
vn -0.9897 0.1013 -0.1013
vn -0.9897 0.1013 0.1013
vn 0.1013 0.1013 0.9897
vn 0.1013 -0.1013 0.9897
vn -0.9897 -0.1013 -0.1013
vn 0.1013 0.9897 -0.1013
vn 0.1013 0.9897 0.1013
vn -0.9897 -0.1013 0.1013
vn 0.1013 -0.1013 -0.9897
vn 0.1013 0.1013 -0.9897
vn -0.1013 -0.9897 0.1013
vn -0.1013 0.1013 -0.9897
vn -0.1013 0.9897 0.1013
vn -0.1013 -0.1013 -0.9897
vn 0.9897 -0.1013 0.1013
vn 0.9897 0.1013 0.1013
vn -0.1013 -0.9897 -0.1013
vn 0.9897 0.1013 -0.1013
vn -0.1013 0.9897 -0.1013
vn 0.9897 -0.1013 -0.1013
vn -0.1013 -0.1013 0.9897
vn -0.1013 0.1013 0.9897
s 1
f 15/1/1 17/2/1 4/3/1 2/4/1
f 21/5/2 23/6/2 18/7/2 14/8/2
f 22/9/3 10/10/3 5/11/3 16/12/3
f 3/13/4 6/14/4 12/15/4 8/16/4
f 9/17/5 11/18/5 24/19/5 20/20/5
f 26/21/6 29/22/6 27/23/6
f 30/24/7 32/25/7 31/26/7
f 25/27/8 28/28/8 36/29/8
f 33/30/9 35/31/9 34/32/9
f 43/33/10 44/34/10 48/35/10
f 45/36/11 47/37/11 46/38/11
f 37/39/12 38/40/12 42/41/12
f 39/42/13 41/43/13 40/44/13
f 25/27/14 26/21/14 27/23/14 28/28/14
f 29/22/15 30/24/15 31/26/15 27/23/15
f 32/25/16 33/30/16 34/32/16 31/26/16
f 35/31/17 36/29/17 28/28/17 34/32/17
f 37/39/18 25/27/18 36/29/18 38/40/18
f 33/30/19 39/42/19 40/44/19 35/31/19
f 41/43/20 42/41/20 38/40/20 40/44/20
f 43/33/21 37/39/21 42/41/21 44/34/21
f 39/42/22 45/36/22 46/38/22 41/43/22
f 47/37/23 48/35/23 44/34/23 46/38/23
f 26/21/24 43/33/24 48/35/24 29/22/24
f 45/36/25 32/25/25 30/24/25 47/37/25
f 7/45/26 19/46/26 13/47/26 1/48/26
f 7/49/27 1/50/28 26/21/28 25/27/27
f 3/51/29 8/52/30 28/28/30 27/23/29
f 2/53/31 4/54/32 30/24/32 29/22/31
f 6/55/33 3/51/29 27/23/29 31/26/33
f 5/56/34 10/57/35 33/30/35 32/25/34
f 12/58/36 6/55/33 31/26/33 34/32/36
f 11/59/37 9/60/38 36/29/38 35/31/37
f 8/52/30 12/58/36 34/32/36 28/28/30
f 19/61/39 7/49/27 25/27/27 37/39/39
f 9/60/38 20/62/40 38/40/40 36/29/38
f 10/57/35 22/63/41 39/42/41 33/30/35
f 24/64/42 11/59/37 35/31/37 40/44/42
f 23/65/43 21/66/44 42/41/44 41/43/43
f 20/62/40 24/64/42 40/44/42 38/40/40
f 13/67/45 19/61/39 37/39/39 43/33/45
f 21/66/44 14/68/46 44/34/46 42/41/44
f 22/63/41 16/69/47 45/36/47 39/42/41
f 18/70/48 23/65/43 41/43/43 46/38/48
f 17/71/49 15/72/50 48/35/50 47/37/49
f 14/68/46 18/70/48 46/38/48 44/34/46
f 1/50/28 13/67/45 43/33/45 26/21/28
f 15/72/50 2/53/31 29/22/31 48/35/50
f 16/69/47 5/56/34 32/25/34 45/36/47
f 4/54/32 17/71/49 47/37/49 30/24/32
